<svg width="24" height="24" viewBox="0 0 24 24" fill="none" xmlns="http://www.w3.org/2000/svg">
<path fill-rule="evenodd" clip-rule="evenodd" d="M9.5999 4.80033C8.32686 4.80033 7.10596 5.30605 6.20579 6.20622C5.30561 7.1064 4.7999 8.32729 4.7999 9.60033C4.7999 10.8734 5.30561 12.0943 6.20579 12.9944C7.10596 13.8946 8.32686 14.4003 9.5999 14.4003C10.8729 14.4003 12.0938 13.8946 12.994 12.9944C13.8942 12.0943 14.3999 10.8734 14.3999 9.60033C14.3999 8.32729 13.8942 7.1064 12.994 6.20622C12.0938 5.30605 10.8729 4.80033 9.5999 4.80033ZM2.3999 9.60033C2.39976 8.46718 2.66707 7.34999 3.18011 6.33962C3.69314 5.32926 4.43741 4.45425 5.35238 3.78576C6.26734 3.11728 7.32718 2.67419 8.44568 2.49253C9.56418 2.31088 10.7098 2.39579 11.7893 2.74035C12.8688 3.08492 13.8517 3.67942 14.6581 4.47549C15.4645 5.27156 16.0717 6.24673 16.4301 7.32169C16.7886 8.39665 16.8883 9.54104 16.7211 10.6618C16.5539 11.7825 16.1245 12.848 15.4679 13.7715L21.2483 19.5519C21.4669 19.7783 21.5878 20.0814 21.5851 20.396C21.5824 20.7107 21.4562 21.0116 21.2337 21.2341C21.0112 21.4566 20.7102 21.5828 20.3956 21.5855C20.0809 21.5883 19.7778 21.4673 19.5515 21.2487L13.7723 15.4695C12.6951 16.2355 11.4279 16.6901 10.1095 16.7837C8.79111 16.8772 7.47239 16.6061 6.29786 15.9999C5.12334 15.3937 4.13833 14.476 3.45077 13.3472C2.76321 12.2183 2.39965 10.9221 2.3999 9.60033Z" fill="#1CA86B"/>
</svg>
