<svg width="40" height="41" viewBox="0 0 40 41" fill="none" xmlns="http://www.w3.org/2000/svg">
<path d="M13.7494 30.3C10.7142 30.3 8 27.895 8 23.668C8 18.79 10.6497 14.434 14.6555 11.573L14.6694 11.585C14.7684 11.5313 14.8788 11.5022 14.9913 11.5C15.1469 11.5031 15.2971 11.558 15.4185 11.656L15.4264 11.649L18.1119 13.355L18.096 13.37C18.2867 13.501 18.4188 13.71 18.4188 13.96C18.4177 14.091 18.381 14.2193 18.3127 14.3308C18.2444 14.4424 18.1471 14.533 18.0314 14.593L18.0334 14.595L17.9877 14.623L17.9757 14.63C15.9242 15.754 13.7434 18.356 13.1682 20.676C13.4265 20.546 13.9431 20.481 14.4607 20.481C16.9157 20.481 18.853 22.366 18.853 25.162C18.854 27.959 16.5272 30.3 13.7494 30.3ZM26.8964 30.3C23.8612 30.3 21.147 27.895 21.147 23.668C21.147 18.79 23.7967 14.434 27.8025 11.573L27.8164 11.585C27.9154 11.5313 28.0258 11.5022 28.1383 11.5C28.2939 11.5031 28.4441 11.558 28.5655 11.656L28.5734 11.649L31.2588 13.355L31.243 13.37C31.4337 13.501 31.5658 13.71 31.5658 13.96C31.5647 14.091 31.528 14.2193 31.4597 14.3308C31.3914 14.4424 31.2941 14.533 31.1784 14.593L31.1804 14.595L31.1347 14.623L31.1227 14.63C29.0712 15.754 26.8904 18.356 26.3152 20.676C26.5735 20.546 27.0901 20.481 27.6077 20.481C30.0627 20.481 32 22.366 32 25.162C32 27.959 29.6742 30.3 26.8964 30.3Z" fill="#42B784"/>
</svg>
