<svg width="24" height="24" viewBox="0 0 24 24" fill="none" xmlns="http://www.w3.org/2000/svg">
<g clip-path="url(#clip0_204_1006)">
<path d="M20.9999 6.70441C20.3258 6.98888 19.6109 7.17561 18.8788 7.25838C19.6414 6.82297 20.2269 6.13349 20.5026 5.31198C19.7777 5.72179 18.9846 6.01052 18.1576 6.16571C17.4839 5.48199 16.5242 5.05469 15.462 5.05469C13.4225 5.05469 11.769 6.62992 11.769 8.57277C11.769 8.84855 11.8017 9.11703 11.8646 9.37459C8.79546 9.22782 6.07436 7.82722 4.25292 5.69869C3.9351 6.21829 3.753 6.82271 3.753 7.46738C3.753 8.68799 4.405 9.76478 5.39585 10.3957C4.8094 10.3782 4.23587 10.2273 3.72311 9.95562C3.7229 9.97036 3.7229 9.9851 3.7229 9.9999C3.7229 11.7045 4.99584 13.1265 6.68517 13.4497C6.14136 13.5906 5.57095 13.6112 5.0175 13.5099C5.48739 14.9077 6.85125 15.9248 8.46717 15.9532C7.2033 16.8968 5.61093 17.4593 3.88082 17.4593C3.5827 17.4593 3.28879 17.4426 2.99988 17.4101C4.63415 18.4083 6.57527 18.9908 8.66074 18.9908C15.4534 18.9908 19.1678 13.6299 19.1678 8.98078C19.1678 8.82819 19.1643 8.67647 19.1571 8.52561C19.8801 8.0277 20.5041 7.41098 20.9999 6.70441Z" fill="white"/>
</g>
<defs>
<clipPath id="clip0_204_1006">
<rect width="18" height="14" fill="white" transform="translate(2.99988 5)"/>
</clipPath>
</defs>
</svg>
