<svg width="157" height="24" viewBox="0 0 157 24" fill="none" xmlns="http://www.w3.org/2000/svg">
<path d="M9.24041 18.096C7.48041 18.096 5.96841 17.744 4.70441 17.04C3.45641 16.32 2.49641 15.312 1.82441 14.016C1.15241 12.704 0.816406 11.16 0.816406 9.38398C0.816406 7.60798 1.15241 6.07198 1.82441 4.77598C2.49641 3.47998 3.45641 2.47998 4.70441 1.77598C5.96841 1.05598 7.48041 0.695984 9.24041 0.695984C10.4244 0.695984 11.4884 0.863984 12.4324 1.19998C13.3924 1.53598 14.2164 2.03198 14.9044 2.68798L13.8964 5.13598C13.1444 4.52798 12.4164 4.09598 11.7124 3.83998C11.0244 3.56798 10.2324 3.43198 9.33641 3.43198C7.62441 3.43198 6.31241 3.95198 5.40041 4.99198C4.50441 6.01598 4.05641 7.47998 4.05641 9.38398C4.05641 11.288 4.50441 12.76 5.40041 13.8C6.31241 14.84 7.62441 15.36 9.33641 15.36C10.2324 15.36 11.0244 15.232 11.7124 14.976C12.4164 14.704 13.1444 14.256 13.8964 13.632L14.9044 16.08C14.2164 16.72 13.3924 17.216 12.4324 17.568C11.4884 17.92 10.4244 18.096 9.24041 18.096Z" fill="white"/>
<path d="M22.1863 18.096C20.9383 18.096 19.8583 17.84 18.9463 17.328C18.0343 16.816 17.3223 16.088 16.8103 15.144C16.3143 14.2 16.0663 13.08 16.0663 11.784C16.0663 10.488 16.3143 9.37598 16.8103 8.44798C17.3223 7.50398 18.0343 6.77598 18.9463 6.26398C19.8583 5.75198 20.9383 5.49598 22.1863 5.49598C23.4343 5.49598 24.5143 5.75198 25.4263 6.26398C26.3543 6.77598 27.0663 7.50398 27.5623 8.44798C28.0743 9.37598 28.3303 10.488 28.3303 11.784C28.3303 13.08 28.0743 14.2 27.5623 15.144C27.0663 16.088 26.3543 16.816 25.4263 17.328C24.5143 17.84 23.4343 18.096 22.1863 18.096ZM22.1863 15.792C23.1303 15.792 23.8823 15.464 24.4423 14.808C25.0023 14.136 25.2823 13.128 25.2823 11.784C25.2823 10.44 25.0023 9.43998 24.4423 8.78398C23.8823 8.12798 23.1303 7.79998 22.1863 7.79998C21.2423 7.79998 20.4903 8.12798 19.9303 8.78398C19.3703 9.43998 19.0903 10.44 19.0903 11.784C19.0903 13.128 19.3703 14.136 19.9303 14.808C20.4903 15.464 21.2423 15.792 22.1863 15.792Z" fill="white"/>
<path d="M64.8593 18.096C63.4193 18.096 62.3313 17.72 61.5953 16.968C60.8593 16.216 60.4913 15.088 60.4913 13.584V7.99198H58.1633V5.73598H60.4913V2.63999L63.4913 1.87198V5.73598H66.7313V7.99198H63.4913V13.392C63.4913 14.224 63.6513 14.808 63.9713 15.144C64.2913 15.48 64.7313 15.648 65.2913 15.648C65.5953 15.648 65.8513 15.624 66.0593 15.576C66.2833 15.528 66.4993 15.464 66.7073 15.384V17.76C66.4353 17.872 66.1313 17.952 65.7953 18C65.4753 18.064 65.1633 18.096 64.8593 18.096Z" fill="white"/>
<path d="M96.0343 18.096C94.9943 18.096 94.0343 17.976 93.1543 17.736C92.2903 17.48 91.5623 17.128 90.9703 16.68L91.8103 14.664C92.4183 15.08 93.0903 15.4 93.8263 15.624C94.5623 15.848 95.3063 15.96 96.0583 15.96C96.8583 15.96 97.4503 15.824 97.8343 15.552C98.2343 15.28 98.4343 14.912 98.4343 14.448C98.4343 14.08 98.3063 13.792 98.0503 13.584C97.8103 13.36 97.4183 13.192 96.8743 13.08L94.4743 12.624C93.4503 12.4 92.6663 12.016 92.1223 11.472C91.5943 10.928 91.3303 10.216 91.3303 9.33598C91.3303 8.58398 91.5303 7.91998 91.9303 7.34398C92.3463 6.76798 92.9303 6.31998 93.6823 5.99998C94.4503 5.66398 95.3463 5.49598 96.3703 5.49598C97.2663 5.49598 98.1063 5.61598 98.8903 5.85598C99.6903 6.09598 100.362 6.45598 100.906 6.93598L100.042 8.87998C99.5463 8.47998 98.9783 8.16798 98.3383 7.94398C97.6983 7.71998 97.0743 7.60798 96.4663 7.60798C95.6343 7.60798 95.0263 7.75998 94.6423 8.06398C94.2583 8.35198 94.0663 8.72798 94.0663 9.19198C94.0663 9.54398 94.1783 9.83998 94.4023 10.08C94.6423 10.304 95.0103 10.472 95.5063 10.584L97.9063 11.04C98.9783 11.248 99.7863 11.616 100.33 12.144C100.89 12.656 101.17 13.36 101.17 14.256C101.17 15.056 100.954 15.744 100.522 16.32C100.09 16.896 99.4903 17.336 98.7223 17.64C97.9543 17.944 97.0583 18.096 96.0343 18.096Z" fill="white"/>
<path d="M109.306 18.096C108.058 18.096 106.962 17.84 106.018 17.328C105.09 16.816 104.37 16.088 103.858 15.144C103.346 14.184 103.09 13.048 103.09 11.736C103.09 10.424 103.346 9.30398 103.858 8.37598C104.386 7.44798 105.114 6.73598 106.042 6.23998C106.97 5.74398 108.058 5.49598 109.306 5.49598C110.106 5.49598 110.882 5.62398 111.634 5.87998C112.402 6.11998 113.026 6.47198 113.506 6.93598L112.594 9.02398C112.162 8.62398 111.674 8.32798 111.13 8.13598C110.602 7.92798 110.082 7.82398 109.57 7.82398C108.498 7.82398 107.658 8.15998 107.05 8.83198C106.458 9.50398 106.162 10.48 106.162 11.76C106.162 13.04 106.458 14.024 107.05 14.712C107.658 15.4 108.498 15.744 109.57 15.744C110.066 15.744 110.578 15.648 111.106 15.456C111.65 15.264 112.146 14.968 112.594 14.568L113.506 16.632C113.01 17.096 112.378 17.456 111.61 17.712C110.858 17.968 110.09 18.096 109.306 18.096Z" fill="white"/>
<path fill-rule="evenodd" clip-rule="evenodd" d="M77.9815 20.928L78.6775 23.304C79.3815 23.192 80.0295 23.04 80.6215 22.848C81.2135 22.656 81.7575 22.384 82.2535 22.032C82.7495 21.696 83.2135 21.24 83.6455 20.664C84.0775 20.104 84.4775 19.392 84.8455 18.528L90.3655 5.73598H87.3415L83.8746 14.3269L80.4295 5.73598H77.2375L82.3028 17.5245L81.9895 18.264C81.7655 18.792 81.4855 19.224 81.1495 19.56C80.8135 19.896 80.3895 20.168 79.8775 20.376C79.3655 20.584 78.7335 20.768 77.9815 20.928ZM84.2215 15.192L83.8746 14.3269L83.5255 15.192H84.2215Z" fill="white"/>
<path d="M83.5255 15.192H84.2215L83.8746 14.3269L83.5255 15.192Z" fill="white"/>
<path fill-rule="evenodd" clip-rule="evenodd" d="M68.745 8.83198V17.856H71.769V11.4C71.769 10.744 71.881 10.16 72.105 9.64798C72.345 9.13598 72.697 8.73598 73.161 8.44798C73.641 8.15998 74.225 8.01598 74.913 8.01598C75.233 8.01598 75.497 8.03198 75.705 8.06398C75.929 8.09598 76.193 8.17598 76.497 8.30398L76.521 5.66398C76.345 5.59998 76.169 5.55998 75.993 5.54398C75.817 5.51198 75.585 5.49598 75.297 5.49598C74.657 5.49598 74.065 5.62398 73.521 5.87998C72.977 6.13598 72.513 6.52798 72.129 7.05598C71.9635 7.29346 71.819 7.55846 71.6956 7.85096L71.481 5.73598H68.577C68.641 6.23198 68.681 6.74398 68.697 7.27198C68.729 7.79998 68.745 8.31998 68.745 8.83198ZM71.817 9.04798L71.6956 7.85096C71.6818 7.88363 71.6683 7.91663 71.655 7.94998C71.523 8.28198 71.417 8.64798 71.337 9.04798H71.817Z" fill="white"/>
<path d="M71.337 9.04798H71.817L71.6956 7.85096C71.6818 7.88363 71.6683 7.91663 71.655 7.94998C71.523 8.28198 71.417 8.64798 71.337 9.04798Z" fill="white"/>
<path fill-rule="evenodd" clip-rule="evenodd" d="M31.9495 16.872C32.6855 17.688 33.7975 18.096 35.2855 18.096C36.2295 18.096 37.0535 17.864 37.7575 17.4C38.2774 17.0533 38.7014 16.6066 39.0295 16.0597V17.856H41.9575V5.73598H38.9575V12.576C38.9575 13.52 38.6855 14.28 38.1415 14.856C37.6135 15.432 36.9255 15.72 36.0775 15.72C35.3255 15.72 34.7655 15.512 34.3975 15.096C34.0295 14.664 33.8455 14 33.8455 13.104V5.73598H30.8455V13.128C30.8455 14.808 31.2135 16.056 31.9495 16.872ZM39.3655 15.384C39.2775 15.6 39.178 15.804 39.067 15.996C39.0546 16.0174 39.0421 16.0386 39.0295 16.0597V15.384H39.3655Z" fill="white"/>
<path d="M39.3655 15.384H39.0295V16.0597C39.0421 16.0386 39.0546 16.0174 39.067 15.996C39.178 15.804 39.2775 15.6 39.3655 15.384Z" fill="white"/>
<path fill-rule="evenodd" clip-rule="evenodd" d="M45.2143 8.75998V17.856H48.2143V11.016C48.2143 10.056 48.4863 9.28798 49.0303 8.71198C49.5743 8.13598 50.3103 7.84798 51.2383 7.84798C51.9903 7.84798 52.5503 8.06398 52.9183 8.49598C53.3023 8.91198 53.4943 9.60798 53.4943 10.584V17.856H56.4943V10.44C56.4943 8.74398 56.1343 7.49598 55.4143 6.69598C54.6943 5.89598 53.6223 5.49598 52.1983 5.49598C51.2063 5.49598 50.3343 5.72798 49.5823 6.19198C48.9747 6.55402 48.4871 7.04665 48.1197 7.6699L47.9263 5.73598H45.0223C45.0863 6.23198 45.1343 6.73598 45.1663 7.24798C45.1983 7.75998 45.2143 8.26398 45.2143 8.75998ZM48.1663 8.13598L48.1197 7.6699C48.1177 7.67329 48.1157 7.67668 48.1138 7.68008C48.0288 7.82501 47.9503 7.97698 47.8783 8.13598H48.1663Z" fill="white"/>
<path d="M47.8783 8.13598H48.1663L48.1197 7.6699L48.1138 7.68008C48.0288 7.82501 47.9503 7.97698 47.8783 8.13598Z" fill="white"/>
<path fill-rule="evenodd" clip-rule="evenodd" d="M117.657 17.352C118.457 17.848 119.385 18.096 120.441 18.096C121.433 18.096 122.321 17.848 123.105 17.352C123.667 16.9967 124.093 16.5552 124.384 16.0275L124.401 17.856H127.377V8.75998C127.377 8.26398 127.393 7.75998 127.425 7.24798C127.473 6.73598 127.521 6.23198 127.569 5.73598H124.689L124.481 7.74368C124.191 7.14363 123.74 6.6504 123.129 6.26398C122.361 5.75198 121.465 5.49598 120.441 5.49598C119.385 5.49598 118.457 5.75198 117.657 6.26398C116.857 6.75998 116.233 7.47998 115.785 8.42398C115.337 9.35198 115.113 10.472 115.113 11.784C115.113 13.096 115.337 14.224 115.785 15.168C116.233 16.112 116.857 16.84 117.657 17.352ZM124.377 15.36L124.384 16.0275C124.385 16.0257 124.386 16.0239 124.387 16.0221C124.5 15.8147 124.593 15.594 124.665 15.36H124.377ZM123.561 14.808C122.985 15.464 122.225 15.792 121.281 15.792C120.321 15.792 119.553 15.464 118.977 14.808C118.417 14.136 118.137 13.128 118.137 11.784C118.137 10.44 118.425 9.43998 119.001 8.78398C119.577 8.12798 120.337 7.79998 121.281 7.79998C122.225 7.79998 122.985 8.12798 123.561 8.78398C124.137 9.43998 124.425 10.44 124.425 11.784C124.425 13.128 124.137 14.136 123.561 14.808Z" fill="white"/>
<path d="M124.665 15.36H124.377L124.384 16.0275L124.387 16.0221C124.5 15.8147 124.593 15.594 124.665 15.36Z" fill="white"/>
<path fill-rule="evenodd" clip-rule="evenodd" d="M130.644 8.75998V23.04H133.644V15.9984C133.932 16.539 134.356 16.9902 134.916 17.352C135.684 17.848 136.572 18.096 137.58 18.096C138.652 18.096 139.588 17.848 140.388 17.352C141.188 16.84 141.812 16.112 142.26 15.168C142.708 14.224 142.932 13.096 142.932 11.784C142.932 10.472 142.708 9.35198 142.26 8.42398C141.812 7.47998 141.188 6.75998 140.388 6.26398C139.588 5.75198 138.652 5.49598 137.58 5.49598C136.556 5.49598 135.652 5.75198 134.868 6.26398C134.276 6.6464 133.841 7.13343 133.562 7.72508L133.356 5.73598H130.452C130.516 6.23198 130.564 6.73598 130.596 7.24798C130.628 7.75998 130.644 8.26398 130.644 8.75998ZM133.62 8.27998L133.562 7.72508C133.559 7.73295 133.555 7.74084 133.551 7.74875C133.474 7.91741 133.409 8.09448 133.356 8.27998H133.62ZM139.044 14.808C138.468 15.464 137.7 15.792 136.74 15.792C135.796 15.792 135.036 15.464 134.46 14.808C133.884 14.136 133.596 13.128 133.596 11.784C133.596 10.44 133.884 9.43998 134.46 8.78398C135.036 8.12798 135.796 7.79998 136.74 7.79998C137.7 7.79998 138.468 8.12798 139.044 8.78398C139.62 9.43998 139.908 10.44 139.908 11.784C139.908 13.128 139.62 14.136 139.044 14.808Z" fill="white"/>
<path d="M133.356 8.27998H133.62L133.562 7.72508L133.551 7.74875C133.474 7.91741 133.409 8.09448 133.356 8.27998Z" fill="white"/>
<path fill-rule="evenodd" clip-rule="evenodd" d="M146.607 16.416C147.759 17.536 149.351 18.096 151.383 18.096C152.279 18.096 153.127 17.968 153.927 17.712C154.727 17.456 155.415 17.096 155.991 16.632L155.103 14.616C154.559 15.032 153.983 15.336 153.375 15.528C152.783 15.704 152.143 15.792 151.455 15.792C150.271 15.792 149.351 15.472 148.695 14.832C148.119 14.2416 147.802 13.3856 147.744 12.264H156.135V11.472C156.135 10.272 155.927 9.22398 155.511 8.32798C155.111 7.43198 154.519 6.73598 153.735 6.23998C152.951 5.74398 151.975 5.49598 150.807 5.49598C149.623 5.49598 148.583 5.75998 147.687 6.28798C146.807 6.81598 146.119 7.55198 145.623 8.49598C145.127 9.43998 144.879 10.544 144.879 11.808C144.879 13.76 145.455 15.296 146.607 16.416ZM147.783 10.68H153.583C153.539 9.72332 153.302 8.97932 152.871 8.44798C152.407 7.85598 151.727 7.55998 150.831 7.55998C149.839 7.55998 149.071 7.91198 148.527 8.61598C148.13 9.14555 147.882 9.83355 147.783 10.68ZM147.735 11.568V11.88C147.735 12.003 147.738 12.1231 147.743 12.2403C147.744 12.2482 147.744 12.2561 147.744 12.264H147.303V10.68H147.783C147.751 10.9588 147.735 11.2548 147.735 11.568Z" fill="white"/>
<path d="M147.303 10.68V12.264H147.744L147.743 12.2403C147.738 12.1231 147.735 12.003 147.735 11.88V11.568C147.735 11.2548 147.751 10.9588 147.783 10.68H147.303Z" fill="white"/>
</svg>
